<svg width="915" height="224" viewBox="0 0 915 224" fill="none" xmlns="http://www.w3.org/2000/svg">
<path d="M115.28 119.12C115.28 121.509 114.384 123.6 112.592 125.392C110.8 127.184 108.709 128.08 106.32 128.08H71.76V146H61.52V101.2L70.48 92.24H61.52V83.28H106.32C108.709 83.28 110.8 84.176 112.592 85.968C114.384 87.76 115.28 89.8507 115.28 92.24V119.12ZM105.04 119.12V92.24H71.76V126.8L79.44 119.12H105.04ZM169.675 119.12H160.715V108.88H142.795V146H133.835V101.2H142.795V107.6L149.195 101.2H160.715C163.19 101.2 165.28 102.096 166.987 103.888C168.779 105.595 169.675 107.685 169.675 110.16V119.12ZM228.51 137.04C228.51 139.515 227.614 141.648 225.822 143.44C224.115 145.147 222.025 146 219.55 146H192.67C190.195 146 188.062 145.147 186.27 143.44C184.563 141.648 183.71 139.515 183.71 137.04V110.16C183.71 107.685 184.563 105.595 186.27 103.888C188.062 102.096 190.195 101.2 192.67 101.2H219.55C222.025 101.2 224.115 102.096 225.822 103.888C227.614 105.595 228.51 107.685 228.51 110.16V137.04ZM219.55 138.32V108.88H192.67V138.32H219.55ZM291.26 137.04C291.26 139.515 290.364 141.648 288.572 143.44C286.865 145.147 284.775 146 282.3 146H255.42C252.945 146 250.812 145.147 249.02 143.44C247.313 141.648 246.46 139.515 246.46 137.04V110.16C246.46 107.685 247.313 105.595 249.02 103.888C250.812 102.096 252.945 101.2 255.42 101.2H282.3C284.775 101.2 286.865 102.096 288.572 103.888C290.364 105.595 291.26 107.685 291.26 110.16V137.04ZM282.3 138.32V108.88H255.42V138.32H282.3ZM348.89 74.32L341.082 82H319.45V106.32L324.698 101.2H347.61L339.802 108.88H319.45V146H310.49V83.28C310.49 80.8053 311.343 78.7147 313.05 77.008C314.842 75.216 316.975 74.32 319.45 74.32H348.89ZM426.385 137.04C426.385 139.515 425.489 141.648 423.697 143.44C421.99 145.147 419.9 146 417.425 146H390.545C388.07 146 385.937 145.147 384.145 143.44C382.438 141.648 381.585 139.515 381.585 137.04V110.16C381.585 107.685 382.438 105.595 384.145 103.888C385.937 102.096 388.07 101.2 390.545 101.2H417.425C419.9 101.2 421.99 102.096 423.697 103.888C425.489 105.595 426.385 107.685 426.385 110.16V137.04ZM417.425 138.32V108.88H390.545V138.32H417.425ZM484.015 74.32L476.207 82H454.575V106.32L459.823 101.2H482.735L474.927 108.88H454.575V146H445.615V83.28C445.615 80.8053 446.468 78.7147 448.175 77.008C449.967 75.216 452.1 74.32 454.575 74.32H484.015ZM573.03 146H562.79V119.12H529.51V146H519.27V83.28H529.51V117.84L537.19 110.16H562.79V83.28H573.03V146ZM638.26 146H629.3V139.6L622.9 146H602.42C599.945 146 597.812 145.147 596.02 143.44C594.313 141.648 593.46 139.515 593.46 137.04V101.2H602.42V138.32H629.3V101.2H638.26V146ZM731.73 146H722.77V108.88H698.45V146H689.49V108.88H665.17V146H656.21V101.2H665.17V107.6L671.57 101.2H689.49C694.695 101.2 697.639 103.376 698.322 107.728L704.85 101.2H722.77C725.245 101.2 727.335 102.096 729.042 103.888C730.834 105.595 731.73 107.685 731.73 110.16V146ZM792.59 146H783.63V139.472L775.95 146H756.75C754.275 146 752.142 145.147 750.35 143.44C748.643 141.648 747.79 139.515 747.79 137.04V128.08C747.79 125.605 748.643 123.515 750.35 121.808C752.142 120.016 754.275 119.12 756.75 119.12H782.35L774.67 126.672H756.75V138.32H783.63V108.88H747.79L755.47 101.2H783.63C786.105 101.2 788.195 102.096 789.902 103.888C791.694 105.595 792.59 107.685 792.59 110.16V146ZM855.26 146H846.3V108.88H819.42V146H810.46V101.2H819.42V107.6L825.82 101.2H846.3C848.775 101.2 850.865 102.096 852.572 103.888C854.364 105.595 855.26 107.685 855.26 110.16V146Z" fill="black"/>
</svg>
