<svg width="240" height="240" viewBox="0 0 240 240" fill="none" xmlns="http://www.w3.org/2000/svg">
<path d="M78.28 127.12C78.28 129.509 77.384 131.6 75.592 133.392C73.8 135.184 71.7093 136.08 69.32 136.08H34.76V154H24.52V109.2L33.48 100.24H24.52V91.28H69.32C71.7093 91.28 73.8 92.176 75.592 93.968C77.384 95.76 78.28 97.8507 78.28 100.24V127.12ZM68.04 127.12V100.24H34.76V134.8L42.44 127.12H68.04ZM141.635 145.04C141.635 147.515 140.739 149.648 138.947 151.44C137.24 153.147 135.15 154 132.675 154H105.795C103.32 154 101.187 153.147 99.395 151.44C97.6883 149.648 96.835 147.515 96.835 145.04V118.16C96.835 115.685 97.6883 113.595 99.395 111.888C101.187 110.096 103.32 109.2 105.795 109.2H132.675C135.15 109.2 137.24 110.096 138.947 111.888C140.739 113.595 141.635 115.685 141.635 118.16V145.04ZM132.675 146.32V116.88H105.795V146.32H132.675ZM215.905 154H205.665V127.12H172.385V154H162.145V91.28H172.385V125.84L180.065 118.16H205.665V91.28H215.905V154Z" fill="black"/>
</svg>
